<svg xmlns="http://www.w3.org/2000/svg" width="512" height="512"><path d="M503.5 256c0 136.69-110.81 247.5-247.5 247.5S8.5 392.69 8.5 256 119.31 8.5 256 8.5 503.5 119.31 503.5 256z" fill="#e6e6e6"/><path d="M255.97 42.03c-56.368 0-109.363 21.952-149.22 61.814-82.298 82.294-82.295 216.228 0 298.53 3.474 3.473 8.012 5.188 12.563 5.188 4.545 0 9.127-1.72 12.593-5.187 6.946-6.948 6.94-18.217 0-25.156-68.436-68.444-68.43-179.784 0-248.22 33.152-33.147 77.187-51.406 124.063-51.406h.03c46.887.004 90.94 18.276 124.094 51.437 68.424 68.425 68.424 179.763 0 248.19-6.945 6.938-6.945 18.184 0 25.124 6.94 6.945 18.218 6.945 25.156 0 82.29-82.285 82.286-216.18 0-298.47C365.383 64 312.38 42.035 256 42.032h-.03zm.03 74.782c-34.922.003-69.848 13.286-96.438 39.876-53.156 53.16-53.16 139.67 0 192.843 6.94 6.944 18.212 6.94 25.157 0 6.942-6.94 6.937-18.18 0-25.124-39.304-39.308-39.296-103.264 0-142.562 39.318-39.318 103.255-39.326 142.56-.03 39.31 39.313 39.31 103.278 0 142.592-6.944 6.94-6.944 18.214 0 25.156 3.468 3.47 8.015 5.188 12.564 5.188 4.55 0 9.097-1.717 12.562-5.188 53.18-53.175 53.204-139.7.03-192.875-26.58-26.58-61.514-39.877-96.436-39.875zm0 81.47c-4.55-.002-9.094 1.746-12.563 5.218l-35.656 35.656c-3.334 3.335-5.218 7.85-5.218 12.563 0 4.715 1.884 9.226 5.22 12.56l35.655 35.658c3.47 3.47 8.015 5.218 12.563 5.218 4.547 0 9.094-1.75 12.563-5.22l35.656-35.623c3.337-3.34 5.217-7.878 5.217-12.594 0-4.715-1.88-9.224-5.218-12.564L268.56 203.5c-3.47-3.468-8.013-5.218-12.562-5.22z" fill="#4169e1"/></svg>
